<svg width="767" height="605" viewBox="0 0 767 605" fill="none" xmlns="http://www.w3.org/2000/svg">
<path d="M151.5 28.8867L48 243.887H186M186 243.887L250 115.887M186 243.887L118.5 390.887" stroke="#FF0000" stroke-width="47"/>
<path d="M646.5 187.887L543 402.887H681M681 402.887L745 274.887M681 402.887L613.5 549.887" stroke="#FF0000" stroke-width="47"/>
<path d="M498.5 307.387C498.5 351.939 485.356 391.847 464.628 420.36C443.892 448.883 416.139 465.387 386.5 465.387C356.861 465.387 329.108 448.883 308.372 420.36C287.644 391.847 274.5 351.939 274.5 307.387C274.5 262.834 287.644 222.926 308.372 194.413C329.108 165.891 356.861 149.387 386.5 149.387C416.139 149.387 443.892 165.891 464.628 194.413C485.356 222.926 498.5 262.834 498.5 307.387Z" stroke="#FF0000" stroke-width="21"/>
<path d="M386.5 62.3867C397 39.3867 429.8 -3.31333 477 9.88667C536 26.3867 644.5 -38.1133 622.5 65.8867C604.9 149.087 669.833 116.553 704.5 89.8867" stroke="#FF0000" stroke-width="9"/>
<path d="M5 543.273C15.5 520.273 48.3 477.573 95.5 490.773C154.5 507.273 263 442.773 241 546.773C223.4 629.973 288.333 597.44 323 570.773" stroke="#FF0000" stroke-width="9"/>
<path d="M713.5 66.047L707.001 58.8867C696.01 64.3808 687.947 76.598 701.501 91.3867C713.441 104.415 725.501 98.72 736.501 91.3867L728.331 82.3867M713.5 66.047L727 56.3867M713.5 66.047L728.331 82.3867M728.331 82.3867L745.5 71.3867" stroke="#FF0000" stroke-width="9"/>
<path d="M317 257.387L386 62.8867L363.5 230.887L445 223.387L391 333.387L474.5 327.887L317 574.387L411.5 365.387L339 374.887L386 264.387L317 257.387Z" stroke="#DBFF00" stroke-width="21"/>
</svg>
