<svg width="24" height="24" viewBox="0 0 24 24" fill="none" xmlns="http://www.w3.org/2000/svg">
<g id="&#208;&#152;&#208;&#186;&#208;&#190;&#208;&#189;&#208;&#186;&#208;&#176;">
<g id="Vector 5">
<path d="M19.1223 7.44053H5.4443L8.86275 15.6391C9.32873 16.7567 10.4209 17.4846 11.6317 17.4846H17.6047C18.855 17.4846 19.9742 16.7092 20.4135 15.5386L21.9311 11.4945C22.6671 9.53318 21.2172 7.44053 19.1223 7.44053Z" fill="black"/>
<path d="M0 2H2.24757C3.81511 2 5.11841 3.20683 5.23871 4.76975L5.4443 7.44053M5.4443 7.44053H19.1223C21.2172 7.44053 22.6671 9.53318 21.9311 11.4945L20.4135 15.5386C19.9742 16.7092 18.855 17.4846 17.6047 17.4846H11.6317C10.4209 17.4846 9.32873 16.7567 8.86275 15.6391L5.4443 7.44053Z" stroke="black" stroke-width="3"/>
</g>
<ellipse id="Ellipse 1" cx="7.09396" cy="21.0925" rx="2.09396" ry="2.09251" fill="black"/>
<ellipse id="Ellipse 2" cx="21.5464" cy="21.0925" rx="2.09396" ry="2.09251" fill="black"/>
</g>
</svg>
